<svg width="168" height="62" viewBox="0 0 168 62" fill="none" xmlns="http://www.w3.org/2000/svg">
<path fill-rule="evenodd" clip-rule="evenodd" d="M8.56524 24.2992H0V20.8732H8.56524V24.2992Z" fill="#FF2400"/>
<path fill-rule="evenodd" clip-rule="evenodd" d="M3.30615 12.8904L5.72161 10.4751L10.5694 15.323L8.1541 17.7384L3.30615 12.8904Z" fill="#1199FF"/>
<path fill-rule="evenodd" clip-rule="evenodd" d="M3.30615 32.2821L8.1541 27.4341L10.5694 29.8495L5.72161 34.6974L3.30615 32.2821Z" fill="#009900"/>
<path d="M101.105 56V50.6013L96.9999 43.4968H99.1744L102.061 48.5018L104.948 43.4968H107.122L103.017 50.6013V56H101.105Z" fill="white"/>
<path d="M116.166 56L114.854 52.982H109.512L108.143 56H106.081L112.305 42.7657L118.228 56H116.166ZM110.299 51.1824H114.086L112.23 46.946L110.299 51.1824Z" fill="white"/>
<path d="M121.72 43.4968V48.4831L126.556 43.4968H129.068L123.426 49.1579L129.106 56H126.556L122.095 50.4514L121.72 50.8263V56H119.808V43.4968H121.72Z" fill="white"/>
<path d="M130.425 43.4968H132.337V51.0325C132.337 52.0072 132.469 52.7258 132.731 53.1882C132.943 53.5381 133.256 53.8443 133.668 54.1067C134.081 54.3567 134.543 54.4816 135.055 54.4816C135.568 54.4816 136.03 54.3567 136.443 54.1067C136.855 53.8443 137.167 53.5381 137.38 53.1882C137.642 52.7258 137.774 52.0072 137.774 51.0325V43.4968H139.686V51.5386C139.686 52.8508 139.298 53.9318 138.523 54.7816C137.624 55.7563 136.468 56.2437 135.055 56.2437C133.643 56.2437 132.487 55.7563 131.588 54.7816C130.813 53.9318 130.425 52.8508 130.425 51.5386V43.4968Z" fill="white"/>
<path d="M149.026 45.2964H146.158V56H144.246V45.2964H141.378V43.4968H149.026V45.2964Z" fill="white"/>
<path d="M150.708 43.4968H152.62V56H150.708V43.4968Z" fill="white"/>
<path d="M164.275 56L162.963 52.982H157.62L156.252 56H154.19L160.413 42.7657L166.337 56H164.275ZM158.408 51.1824H162.194L160.338 46.946L158.408 51.1824Z" fill="white"/>
<path d="M17.3178 14.1832C19.5728 11.9282 22.3973 10.8007 25.7912 10.8007C29.1851 10.8007 32.0096 11.9282 34.2646 14.1832C36.5196 16.4383 37.6471 19.2513 37.6471 22.6225C37.6471 25.9936 36.5196 28.8067 34.2646 31.0617C32.0096 33.3167 29.1851 34.4442 25.7912 34.4442C22.3973 34.4442 19.5728 33.3167 17.3178 31.0617C15.0628 28.8067 13.9353 25.9936 13.9353 22.6225C13.9353 19.2513 15.0628 16.4383 17.3178 14.1832ZM19.7778 28.8408C21.3495 30.4353 23.354 31.2325 25.7912 31.2325C28.2284 31.2325 30.2329 30.4353 31.8046 28.8408C33.3762 27.2236 34.1621 25.1508 34.1621 22.6225C34.1621 20.0941 33.3762 18.0327 31.8046 16.4383C30.2329 14.821 28.2284 14.0124 25.7912 14.0124C23.354 14.0124 21.3495 14.821 19.7778 16.4383C18.2062 18.0327 17.4203 20.0941 17.4203 22.6225C17.4203 25.1508 18.2062 27.2236 19.7778 28.8408Z" fill="white"/>
<path d="M45.5068 34H42.0218V9.67322L58.5585 26.9958V11.2107H62.0436V35.4009L45.5068 18.0783V34Z" fill="white"/>
<path d="M80.0869 11.2107V14.4907H70.9985V20.2649H79.8135V23.545H70.9985V30.72H80.0869V34H67.5135V11.2107H80.0869Z" fill="white"/>
<path d="M101.475 12.4407V16.5408C99.6075 14.8552 97.5461 14.0124 95.2911 14.0124C92.8311 14.0124 90.8266 14.8324 89.2777 16.4724C87.7516 18.0897 86.9886 20.1624 86.9886 22.6908C86.9886 25.128 87.7744 27.1666 89.3461 28.8067C90.9178 30.4239 92.9108 31.2325 95.3253 31.2325C97.5803 31.2325 99.6303 30.3556 101.475 28.6017V32.7358C99.562 33.8747 97.4778 34.4442 95.2228 34.4442C92.0566 34.4442 89.3689 33.3964 87.1594 31.3008C84.7222 29.023 83.5035 26.153 83.5035 22.6908C83.5035 19.0463 84.7222 16.0738 87.1594 13.7732C89.255 11.7916 91.9997 10.8007 95.3936 10.8007C97.7397 10.8007 99.767 11.3474 101.475 12.4407Z" fill="white"/>
<path d="M105.784 11.2107H109.269V30.72H115.966V34H105.784V11.2107Z" fill="white"/>
<path d="M119.231 11.2107H122.716V34H119.231V11.2107Z" fill="white"/>
<path d="M145.051 12.4407V16.5408C143.184 14.8552 141.122 14.0124 138.867 14.0124C136.407 14.0124 134.403 14.8324 132.854 16.4724C131.328 18.0897 130.565 20.1624 130.565 22.6908C130.565 25.128 131.35 27.1666 132.922 28.8067C134.494 30.4239 136.487 31.2325 138.901 31.2325C141.156 31.2325 143.206 30.3556 145.051 28.6017V32.7358C143.138 33.8747 141.054 34.4442 138.799 34.4442C135.633 34.4442 132.945 33.3964 130.735 31.3008C128.298 29.023 127.08 26.153 127.08 22.6908C127.08 19.0463 128.298 16.0738 130.735 13.7732C132.831 11.7916 135.576 10.8007 138.97 10.8007C141.316 10.8007 143.343 11.3474 145.051 12.4407Z" fill="white"/>
<path d="M152.845 11.2107V20.2991L161.66 11.2107H166.239L155.955 21.5291L166.307 34H161.66L153.529 23.8866L152.845 24.57V34H149.36V11.2107H152.845Z" fill="white"/>
</svg>
